<svg clip-rule="evenodd" fill-rule="evenodd" height="512" stroke-linejoin="round" stroke-miterlimit="2" viewBox="0 0 267 267" width="512" xmlns="http://www.w3.org/2000/svg"><path d="m252.083 61.806c0-6.447-2.56-12.629-7.119-17.187-4.558-4.558-10.74-7.119-17.186-7.119-44.554 0-144.336 0-188.889 0-6.446 0-12.628 2.561-17.187 7.119-4.558 4.558-7.119 10.74-7.119 17.187v143.055c0 6.446 2.561 12.629 7.119 17.187 4.559 4.558 10.741 7.119 17.187 7.119h188.889c6.446 0 12.628-2.561 17.186-7.119 4.559-4.558 7.119-10.741 7.119-17.187 0-38.479 0-104.577 0-143.055z" fill="#e1f4f8"/><path d="m78.574 37.5 9.53 19.061c4.799 9.598 14.609 15.661 25.34 15.661h138.639v-10.416c0-6.447-2.56-12.629-7.119-17.187-4.558-4.558-10.74-7.119-17.186-7.119z" fill="#37a4dd"/><circle cx="169.444" cy="54.861" fill="#ffc50c" r="8.333"/><circle cx="204.167" cy="54.861" fill="#fb7a80" r="8.333"/><circle cx="134.722" cy="54.861" fill="#8bc449" r="8.333"/><g fill="#37a4dd"><path d="m38.889 59.853h30.555c1.15 0 2.084-.934 2.084-2.084s-.934-2.083-2.084-2.083h-30.555c-1.15 0-2.083.933-2.083 2.083s.933 2.084 2.083 2.084z"/><path d="m206.944 85.417h30.556c1.15 0 2.083-.934 2.083-2.084 0-1.149-.933-2.083-2.083-2.083h-30.556c-1.149 0-2.083.934-2.083 2.083 0 1.15.934 2.084 2.083 2.084z"/><path d="m206.944 102.083h30.556c1.15 0 2.083-.933 2.083-2.083s-.933-2.083-2.083-2.083h-30.556c-1.149 0-2.083.933-2.083 2.083s.934 2.083 2.083 2.083z"/></g><path d="m133.333 85.417c-34.494 0-62.5 28.005-62.5 62.5 0 34.494 28.006 62.5 62.5 62.5 34.495 0 62.5-28.006 62.5-62.5 0-34.495-28.005-62.5-62.5-62.5zm0 112.5c-1.679 0-3.216-.74-4.669-1.95-1.704-1.42-3.269-3.462-4.747-5.899-1.975-3.259-3.692-7.218-5.097-11.709 4.648.527 9.509.808 14.513.808 5.005 0 9.865-.281 14.512-.807-1.403 4.489-3.12 8.448-5.096 11.708-1.477 2.437-3.042 4.479-4.747 5.899-1.452 1.21-2.989 1.95-4.668 1.95zm-44.803-27.796c4.746 2.361 10.4 4.366 16.718 5.881 1.516 6.319 3.521 11.973 5.881 16.718-9.776-4.857-17.74-12.822-22.599-22.599zm89.607 0c-4.858 9.776-12.822 17.74-22.599 22.599 2.36-4.746 4.365-10.4 5.881-16.718 6.319-1.516 11.973-3.521 16.718-5.881zm-27.342-39.665c.837 5.466 1.288 11.343 1.288 17.461 0 6.117-.451 11.995-1.288 17.46-5.467.839-11.344 1.29-17.462 1.29-6.117 0-11.995-.451-17.46-1.289-.839-5.466-1.29-11.344-1.29-17.461 0-6.118.451-11.995 1.289-17.46 5.466-.839 11.344-1.29 17.461-1.29 6.118 0 11.995.451 17.46 1.288zm12.98 2.947c4.491 1.405 8.45 3.122 11.71 5.098 2.437 1.477 4.479 3.042 5.899 4.747 1.209 1.452 1.949 2.989 1.949 4.669 0 1.679-.74 3.216-1.949 4.669-1.42 1.704-3.462 3.269-5.899 4.747-3.26 1.975-7.218 3.692-11.709 5.097.527-4.648.807-9.509.807-14.513 0-5.005-.28-9.865-.806-14.512zm-60.885.002c-.526 4.647-.807 9.507-.807 14.512 0 5.004.281 9.865.807 14.511-4.489-1.403-8.448-3.12-11.708-5.095-2.437-1.478-4.479-3.043-5.899-4.747-1.21-1.453-1.95-2.99-1.95-4.669 0-1.68.74-3.217 1.95-4.669 1.42-1.705 3.462-3.27 5.899-4.747 3.259-1.976 7.218-3.692 11.709-5.098zm8.239-30.291c-2.361 4.746-4.366 10.399-5.881 16.718-6.319 1.515-11.973 3.52-16.718 5.88 4.857-9.775 12.822-17.74 22.599-22.598zm44.409-.001c9.775 4.858 17.74 12.822 22.598 22.599-4.746-2.36-10.399-4.365-16.718-5.881-1.515-6.319-3.52-11.973-5.88-16.718zm-22.204-5.196c1.679 0 3.216.74 4.668 1.949 1.705 1.42 3.27 3.462 4.747 5.899 1.976 3.26 3.692 7.218 5.098 11.709-4.649-.527-9.509-.807-14.514-.807-5.004 0-9.865.28-14.511.806 1.403-4.489 3.12-8.448 5.095-11.708 1.478-2.437 3.043-4.479 4.747-5.899 1.453-1.209 2.99-1.949 4.669-1.949z" fill="#56c2ef"/></svg>